Coordinates
version=1
nRows=9
nColumns=24
inDegrees=yes

Units are S.I. units (second, meters, Newtons, ...)
Angles are in degrees.

endheader
time	pelvis_tilt	pelvis_list	pelvis_rotation	pelvis_tx	pelvis_ty	pelvis_tz	hip_flexion_r	hip_adduction_r	hip_rotation_r	knee_angle_r	ankle_angle_r	subtalar_angle_r	mtp_angle_r	hip_flexion_l	hip_adduction_l	hip_rotation_l	knee_angle_l	ankle_angle_l	subtalar_angle_l	mtp_angle_l	lumbar_extension	lumbar_bending	lumbar_rotation
      0.94883333	     -0.17363253	     -0.64462806	     -0.27593818	     -0.17545339	      0.98155344	      0.29227226	     -9.28908951	      4.57472197	     -2.77748708	    -10.90762106	     15.31549345	     -1.35767615	      0.40437082	     25.39491171	      1.00658044	     -2.86053910	    -11.63020782	      0.76407818	     -4.47464564	     -3.28428683	     -1.41774433	      4.15096373	      6.65437458
      0.95300000	     -0.19436961	     -0.60511658	     -0.27463144	     -0.16994398	      0.98087843	      0.29190820	     -9.32463286	      4.50804977	     -2.74096189	    -11.49789982	     15.51246227	     -1.51055398	      0.39982434	     25.30651525	      1.12064275	     -2.80409210	    -11.48307569	      0.62586917	     -4.35727268	     -3.23553538	     -1.36362082	      4.09689753	      6.68957574
      0.95716667	     -0.22918624	     -0.54900381	     -0.28926467	     -0.16443091	      0.98022701	      0.29155305	     -9.31334289	      4.41847528	     -2.66916554	    -12.14977157	     15.72889410	     -1.61579402	      0.39690102	     25.23171273	      1.24791890	     -2.73953452	    -11.41447416	      0.45457741	     -4.30008494	     -3.16321121	     -1.30729678	      4.03385243	      6.73010455
      0.96133333	     -0.26713782	     -0.49727868	     -0.29173532	     -0.15888605	      0.97960755	      0.29118984	     -9.27081142	      4.33248415	     -2.63091962	    -12.85649303	     15.87739828	     -1.72178908	      0.39692158	     25.16151670	      1.37409651	     -2.65981179	    -11.42223739	      0.27146951	     -4.26695844	     -3.09511023	     -1.22694429	      3.96578674	      6.75428806
      0.96550000	     -0.31326384	     -0.42143871	     -0.28985460	     -0.15333421	      0.97902530	      0.29079969	     -9.19122353	      4.21939880	     -2.57034366	    -13.61976243	     16.05461303	     -1.80116259	      0.40379788	     25.09620090	      1.53223250	     -2.53497659	    -11.49203884	      0.06055847	     -4.29723693	     -2.99059655	     -1.15702315	      3.88829755	      6.77954746
      0.96966667	     -0.37068711	     -0.36590466	     -0.28793719	     -0.14777989	      0.97848390	      0.29040123	     -9.05752678	      4.12181594	     -2.54525091	    -14.45882076	     16.17190783	     -1.81630599	      0.43435140	     25.03792667	      1.67493651	     -2.35921034	    -11.61147338	     -0.19411114	     -4.48511284	     -2.71418694	     -1.05569003	      3.82797612	      6.81750712
      0.97383333	     -0.37643905	     -0.27492246	     -0.26287754	     -0.14213565	      0.97806183	      0.29001746	     -8.98425147	      3.99600796	     -2.51527690	    -15.29287352	     16.19315313	     -1.97117380	      0.45022691	     24.92366643	      1.84691015	     -2.26000594	    -11.79415389	     -0.40619221	     -4.46152684	     -2.62864469	     -1.00119061	      3.69352606	      6.79679484
      0.97800000	     -0.41048966	     -0.18240234	     -0.23824675	     -0.13651945	      0.97764702	      0.28961442	     -8.83481221	      3.86619244	     -2.46623966	    -16.21308686	     16.25467082	     -2.11245858	      0.48576230	     24.84148725	      2.02712650	     -2.10767203	    -12.02479789	     -0.65406380	     -4.56288980	     -2.50803667	     -0.93107080	      3.57577702	      6.77655148
      0.98216667	     -0.48602328	     -0.11686940	     -0.22500160	     -0.13091862	      0.97724033	      0.28920063	     -8.59023222	      3.75843084	     -2.42093601	    -17.21991255	     16.26527370	     -2.18454957	      0.58716112	     24.78205220	      2.18552582	     -1.87249255	    -12.25062691	     -0.94142538	     -4.83883279	     -2.24940925	     -0.79981940	      3.51030995	      6.75581739
